HIERARCHY
ROOT Hips
{
	OFFSET -0.001795 -0.223333 0.028219
	CHANNELS 6 Xposition Yposition Zposition Zrotation Yrotation Xrotation 
	JOINT LeftUpLeg
	{
		OFFSET 0.069520 -0.091406 -0.006815
		CHANNELS 3 Zrotation Yrotation Xrotation
		JOINT LeftLeg
		{
			OFFSET 0.034277 -0.375199 -0.004496
			CHANNELS 3 Zrotation Yrotation Xrotation
			JOINT LeftFoot
			{
				OFFSET -0.013596 -0.397961 -0.043693
				CHANNELS 3 Zrotation Yrotation Xrotation
				JOINT LeftToe
				{
					OFFSET 0.026358 -0.055791 0.119288
					CHANNELS 3 Zrotation Yrotation Xrotation
					End Site
					{
						OFFSET 0.000000 0.000000 0.000000
					}
				}
			}
		}
	}
	JOINT RightUpLeg
	{
		OFFSET -0.067670 -0.090522 -0.004320
		CHANNELS 3 Zrotation Yrotation Xrotation
		JOINT RightLeg
		{
			OFFSET -0.038290 -0.382569 -0.008850
			CHANNELS 3 Zrotation Yrotation Xrotation
			JOINT RightFoot
			{
				OFFSET 0.015774 -0.398415 -0.042312
				CHANNELS 3 Zrotation Yrotation Xrotation
				JOINT RightToe
				{
					OFFSET -0.025372 -0.048144 0.123348
					CHANNELS 3 Zrotation Yrotation Xrotation
					End Site
					{
						OFFSET 0.000000 0.000000 0.000000
					}
				}
			}
		}
	}
	JOINT Spine
	{
		OFFSET -0.002533 0.108963 -0.026696
		CHANNELS 3 Zrotation Yrotation Xrotation
		JOINT Spine1
		{
			OFFSET 0.005487 0.135180 0.001092
			CHANNELS 3 Zrotation Yrotation Xrotation
			JOINT Spine2
			{
				OFFSET 0.001457 0.052922 0.025425
				CHANNELS 3 Zrotation Yrotation Xrotation
				JOINT Neck
				{
					OFFSET -0.002778 0.213870 -0.042857
					CHANNELS 3 Zrotation Yrotation Xrotation
					JOINT Head
					{
						OFFSET 0.005152 0.064970 0.051349
						CHANNELS 3 Zrotation Yrotation Xrotation
						End Site
						{
							OFFSET 0.000000 0.000000 0.000000
						}
					}
				}
				JOINT LeftShoulder
				{
					OFFSET 0.078845 0.121749 -0.034090
					CHANNELS 3 Zrotation Yrotation Xrotation
					JOINT LeftArm
					{
						OFFSET 0.090977 0.030469 -0.008868
						CHANNELS 3 Zrotation Yrotation Xrotation
						JOINT LeftForeArm
						{
							OFFSET 0.259612 -0.012772 -0.027456
							CHANNELS 3 Zrotation Yrotation Xrotation
							JOINT LeftHand
							{
								OFFSET 0.249234 0.008986 -0.001171
								CHANNELS 3 Zrotation Yrotation Xrotation
								End Site
								{
									OFFSET 0.000000 0.000000 0.000000
								}
							}
						}
					}
				}
				JOINT RightShoulder
				{
					OFFSET -0.081759 0.118833 -0.038615
					CHANNELS 3 Zrotation Yrotation Xrotation
					JOINT RightArm
					{
						OFFSET -0.096012 0.032551 -0.009143
						CHANNELS 3 Zrotation Yrotation Xrotation
						JOINT RightForeArm
						{
							OFFSET -0.253742 -0.013329 -0.021401
							CHANNELS 3 Zrotation Yrotation Xrotation
							JOINT RightHand
							{
								OFFSET -0.255298 0.007772 -0.005559
								CHANNELS 3 Zrotation Yrotation Xrotation
								End Site
								{
									OFFSET 0.000000 0.000000 0.000000
								}
							}
						}
					}
				}
			}
		}
	}
}
MOTION
Frames: 9
Frame Time: 0.050000
0.000000 0.934011 0.000000 -2.390482 10.847419 -4.058932 5.185943 -0.059265 2.680636 -9.477595 1.076975 34.643859 6.758487 14.175847 3.079713 0.000000 0.000000 0.000000 4.666407 1.644612 -12.267047 3.021286 -0.542208 14.286030 -3.023909 -9.070279 10.144233 0.000000 0.000000 0.000000 8.698887 -1.494342 11.433720 0.096905 0.261365 -4.838258 -4.188878 0.198792 13.473611 11.286881 -5.154947 -17.851727 0.000000 0.000000 0.000000 -25.298724 -17.994607 6.273181 -44.279077 -4.293173 -3.730029 -7.802505 -29.116361 2.864950 0.000000 0.000000 0.000000 25.979390 7.564081 5.086990 43.913934 12.630921 -1.482256 -2.089484 26.864645 0.809973 0.000000 0.000000 0.000000 
0.000381 0.936692 0.024732 -2.475425 9.517866 -4.131970 6.470880 -0.170504 -0.121091 -11.882943 2.257119 38.377377 6.395886 13.953869 4.667245 0.000000 0.000000 0.000000 5.887452 1.533783 -10.450894 1.776900 -0.165067 14.167932 -2.516203 -8.058163 9.127183 0.000000 0.000000 0.000000 9.890578 -1.613324 11.482973 -0.523594 0.551424 -5.818700 -4.200920 1.878926 14.204092 12.707970 -5.555124 -19.665618 0.000000 0.000000 0.000000 -24.442796 -18.276158 6.088761 -45.603352 -4.605816 -3.726466 -7.458981 -29.258880 2.739231 0.000000 0.000000 0.000000 24.155666 8.026027 5.552234 45.374633 12.863528 -1.447197 -1.671418 27.865700 1.000639 0.000000 0.000000 0.000000 
0.001501 0.938775 0.048704 -2.000227 8.309864 -5.144875 5.669679 -0.210418 -2.677110 -13.212146 3.147016 41.828245 9.606068 19.664532 7.063961 0.000000 0.000000 0.000000 6.083297 1.133824 -7.443708 1.031112 0.065466 13.850817 -2.027085 -6.964050 7.898113 0.000000 0.000000 0.000000 9.661113 -1.745085 12.970269 -0.992719 0.786757 -7.358569 -3.688284 3.566332 15.184706 11.656594 -4.992843 -18.813343 0.000000 0.000000 0.000000 -24.607448 -19.000832 6.183569 -45.067952 -4.128914 -3.822373 -7.511919 -27.679059 2.570107 0.000000 0.000000 0.000000 24.671118 7.623294 5.706403 44.034710 13.711355 -1.379770 -1.188729 27.464912 1.102190 0.000000 0.000000 0.000000 
0.002916 0.940586 0.072114 -1.744491 7.948206 -5.612248 6.193847 -0.315696 -5.752530 -15.319818 4.275216 42.846085 10.167842 20.640593 7.899370 0.000000 0.000000 0.000000 5.792245 0.752126 -4.919306 1.286723 0.011899 13.113506 -1.812004 -6.399369 7.121674 0.000000 0.000000 0.000000 9.785768 -1.716320 12.854726 -0.694988 0.639241 -6.739913 -4.283471 4.374662 14.869502 12.722714 -5.284890 -20.087150 0.000000 0.000000 0.000000 -25.490370 -19.459826 6.178582 -43.868100 -3.293652 -3.830087 -7.630222 -27.421605 2.544995 0.000000 0.000000 0.000000 25.138214 7.837330 6.078034 42.986759 14.733287 -1.078988 0.168401 27.217918 1.370653 0.000000 0.000000 0.000000 
0.004801 0.941810 0.095134 -1.575701 7.148557 -6.532730 6.380109 -0.433420 -9.230009 -16.521149 5.100584 43.613252 11.666273 23.003254 8.833485 0.000000 0.000000 0.000000 5.898059 0.308509 -1.929622 0.865757 0.130886 12.378802 -1.452809 -5.519757 6.344155 0.000000 0.000000 0.000000 9.606376 -1.818199 14.033100 -0.820242 0.707315 -7.556262 -3.037543 5.377605 15.036857 12.824722 -5.557666 -19.133461 0.000000 0.000000 0.000000 -27.112556 -20.061004 6.397118 -43.320281 -2.746423 -3.875342 -7.380350 -26.350374 2.394634 0.000000 0.000000 0.000000 24.859537 7.458817 5.898236 41.832544 15.039156 -1.032037 0.930210 28.285806 1.606640 0.000000 0.000000 0.000000 
0.006870 0.942260 0.117849 -1.098933 6.172252 -6.895642 5.896099 -0.615346 -12.625849 -15.898931 5.021223 42.967487 11.523495 22.806735 7.971772 0.000000 0.000000 0.000000 5.375674 -0.054723 0.407701 0.777147 0.170031 11.742367 -1.027219 -4.422577 5.447692 0.000000 0.000000 0.000000 9.337490 -1.761780 14.173443 -0.739132 0.653854 -7.600868 -2.996478 5.798849 14.958668 12.657994 -5.460839 -19.156877 0.000000 0.000000 0.000000 -27.310453 -19.662253 6.197431 -43.740601 -2.548391 -4.003585 -6.815487 -26.128331 2.250639 0.000000 0.000000 0.000000 24.764790 8.547656 6.520379 42.293004 16.171268 -0.629770 0.626015 28.398689 1.537524 0.000000 0.000000 0.000000 
0.009139 0.942805 0.140237 -0.873210 4.644241 -7.243019 5.241567 -0.790682 -15.125150 -14.160976 4.336836 39.800892 11.477991 22.718798 7.848557 0.000000 0.000000 0.000000 5.051002 -0.409886 2.757828 0.571250 0.233535 10.905948 -0.355887 -2.831044 4.891104 0.000000 0.000000 0.000000 9.341262 -1.760427 14.547942 -1.368944 0.877059 -7.342370 -2.405347 6.780833 14.549283 12.528469 -5.574375 -18.248132 0.000000 0.000000 0.000000 -27.307683 -19.433816 6.016302 -44.179175 -1.914760 -4.249981 -6.381709 -26.135388 2.146522 0.000000 0.000000 0.000000 25.050003 8.793266 6.700042 41.410067 16.987256 -0.383844 1.615666 29.862486 1.871944 0.000000 0.000000 0.000000 
0.011499 0.942510 0.162614 -0.492851 3.438177 -7.240997 4.392880 -1.024854 -17.515077 -11.319527 3.008608 34.206518 10.427871 21.040442 8.292009 0.000000 0.000000 0.000000 4.549937 -0.641789 4.420519 0.301985 0.307224 10.612221 0.106481 -1.594411 4.228599 0.000000 0.000000 0.000000 8.688657 -1.664350 14.699691 -1.412489 0.865420 -7.171407 -2.407342 7.554597 14.444028 12.030499 -5.097502 -18.761337 0.000000 0.000000 0.000000 -26.925079 -18.800792 5.587711 -44.611776 -1.607460 -4.418048 -6.404461 -26.568625 2.173342 0.000000 0.000000 0.000000 25.254723 9.286382 7.056663 41.211589 18.271017 0.018784 2.514745 31.159143 2.214678 0.000000 0.000000 0.000000 
0.014100 0.941179 0.185175 -0.598443 2.133022 -7.253842 4.337451 -1.047665 -18.355170 -8.480394 1.772902 25.567645 8.826384 18.524963 9.688428 0.000000 0.000000 0.000000 4.684744 -0.930092 6.357417 -0.327718 0.429822 9.789911 0.566156 -0.306934 3.578365 0.000000 0.000000 0.000000 8.575133 -1.632199 14.826018 -1.650912 0.934617 -6.846815 -2.404762 8.471981 13.834988 12.005473 -4.955665 -19.041641 0.000000 0.000000 0.000000 -26.606692 -18.477929 5.286431 -44.584373 -1.008807 -4.572387 -6.394927 -26.451598 2.145139 0.000000 0.000000 0.000000 25.759602 9.496174 7.299965 40.502878 19.200666 0.296617 4.307647 32.396682 2.803118 0.000000 0.000000 0.000000 
